<?xml version="1.0" encoding="utf-8"?>
<!-- Generator: Adobe Illustrator 23.0.3, SVG Export Plug-In . SVG Version: 6.00 Build 0)  -->
<svg version="1.1" id="Layer_1" xmlns="http://www.w3.org/2000/svg" xmlns:xlink="http://www.w3.org/1999/xlink" x="0px" y="0px"
	 viewBox="0 0 60.2 60.2" style="enable-background:new 0 0 60.2 60.2;" xml:space="preserve">
<style type="text/css">
	.st0{fill:#FF4A52;}
</style>
<g id="Outline">
	<path class="st0" d="M27.1,19.6l2.1-0.4l0.4,2.1l-2.1,0.3L27.1,19.6z"/>
	<path class="st0" d="M4.3,42.4h2.1v2.1H4.3V42.4z"/>
	<path class="st0" d="M52.4,47.6c-0.6,0-1,0.5-1,1v2.1h-3.1c-0.6,0-1,0.5-1,1V59c0,0.6,0.5,1,1,1h10.4c0.6,0,1-0.5,1-1V48.6
		c0-0.6-0.5-1-1-1H52.4z M49.2,52.8h2.1V58h-2.1V52.8z M57.6,58h-4.2v-8.4h4.2V58z"/>
	<path class="st0" d="M1.2,50.7v8.4c0,0.6,0.5,1,1,1h39.7c0.6,0,1-0.5,1-1v-4.2c0-0.6-0.5-1-1-1h-4.3L37,46.6h1.7v-2.1h-1.9
		l-0.6-7.3h1.4v-2.1H36l-0.4-5.2h1c0.6,0,1-0.5,1-1v-8.4c0-0.6-0.5-1-1-1h-3.1l-0.6-3l14.6-2.8L49,17c1,2.2,3.1,3.6,5.4,3.7v20.6
		h2.1v-21c0.2-0.2,0.3-0.5,0.3-0.8L56,9c0-0.1,0-0.2,0-0.2l-2.6-8c-0.2-0.5-0.7-0.8-1.2-0.7l-4.1,0.8c-0.4,0.1-0.8,0.4-0.8,0.9
		l-0.8,5.8l-14.7,2.7l-0.2-1c-0.1-0.6-0.7-0.9-1.2-0.8l-8.2,1.4c-0.6,0.1-0.9,0.7-0.8,1.2l0.2,1L6.4,15v-1.8H4.3v2.2L3,15.6
		c-1.7,0.3-2.8,1.9-2.5,3.6s1.9,2.8,3.6,2.5l0,0h0.2v18.6h2.1v-19l16.2-3l0.2,1.1H20c-0.6,0-1,0.5-1,1v8.4c0,0.6,0.5,1,1,1h1
		l-0.5,5.3h-1.6v2.1h1.4l-0.6,7.3h-1.9v2.1h1.7l-0.6,7.3h-5.3v-3.1c0-0.6-0.5-1-1-1H9.4c-0.6-2.2-2.9-3.6-5.1-3
		C2.5,47.1,1.2,48.8,1.2,50.7L1.2,50.7z M40.9,58H3.3v-2.1h37.6C40.9,55.9,40.9,58,40.9,58z M30.4,46.5l4.4,7.3h-13l4.4-7.3H30.4z
		 M27.6,44.5l0.8-1.3l0.8,1.3H27.6z M35.3,50.6l-2.5-4.1h2.1L35.3,50.6z M34.8,44.5h-3.2l-2-3.3l2.5-4h2.2L34.8,44.5z M28.4,39.2
		l-1.2-2h2.5L28.4,39.2z M33.3,35.1L34,34l0.1,1.1H33.3z M21,25.7h14.6v2.1H21V25.7z M35.7,23.6h-3.2c0.5-0.6,0.8-1.3,0.9-2.1h2.2
		L35.7,23.6L35.7,23.6z M49.2,2.8l2.5-0.5l2.2,7l0.8,9.3c-1.6-0.1-3.1-1-3.8-2.5l-1.8-3.9l-0.7-3.8L49.2,2.8z M46.5,9.6l0.4,2.1
		l-14.4,2.7l-0.4-2.1L46.5,9.6z M29.7,10.6l1.7,9.2c0.3,1.7-0.8,3.3-2.5,3.7c-1.7,0.3-3.3-0.8-3.7-2.5l0,0l-1.7-9.2L29.7,10.6z
		 M3.8,19.7c-0.6,0.1-1.1-0.3-1.2-0.8s0.3-1.1,0.8-1.2l18.5-3.4l0.4,2.1L3.8,19.7z M23.2,21.5c0.2,0.8,0.5,1.5,0.9,2.1H21v-2.1H23.2
		z M33.7,29.8v0.5L30.9,35h-5l-2.8-4.7v-0.5C23.1,29.8,33.7,29.8,33.7,29.8z M22.7,33.9l0.7,1.1h-0.8L22.7,33.9z M22.5,37.1h2.2
		l2.5,4l-2,3.3H22L22.5,37.1z M23.9,46.5l-2.5,4.1l0.3-4.1H23.9z M11.7,53.8H9.6v-2.1h2.1C11.7,51.7,11.7,53.8,11.7,53.8z M5.4,48.6
		c1.1,0,2.1,1,2.1,2.1v3.1H3.3v-3.1C3.3,49.6,4.2,48.6,5.4,48.6z"/>
	<path class="st0" d="M54.5,43.4h2v2.1h-2V43.4z"/>
</g>
</svg>
