<?xml version="1.0" encoding="utf-8"?>
<!-- Generator: Adobe Illustrator 23.0.3, SVG Export Plug-In . SVG Version: 6.00 Build 0)  -->
<svg version="1.1" id="hotel" xmlns="http://www.w3.org/2000/svg" xmlns:xlink="http://www.w3.org/1999/xlink" x="0px" y="0px"
	 viewBox="0 0 70.8 60.2" style="enable-background:new 0 0 70.8 60.2;" xml:space="preserve">
<style type="text/css">
	.st0{fill:#FF4A52;}
</style>
<g id="Outline">
	<path class="st0" d="M9.4,33.6h29.8v-2.1H8.3c-0.6,0-1.1-0.5-1.1-1.1s0.5-1.1,1.1-1.1h29.8v-2.1H9.4V7.1h4.3v9.6
		c0,1.8,1.4,3.2,3.2,3.2s3.2-1.4,3.2-3.2v-3.2c0-0.6,0.5-1.1,1.1-1.1s1.1,0.5,1.1,1.1V22c0,1.8,1.4,3.2,3.2,3.2
		c1.8,0,3.2-1.4,3.2-3.2v-5.3c0-0.6,0.5-1.1,1.1-1.1s1.1,0.5,1.1,1.1v2.1c0,1.8,1.4,3.2,3.2,3.2s3.2-1.4,3.2-3.2V9.2h-2.1v9.6
		c0,0.6-0.5,1.1-1.1,1.1S33,19.4,33,18.8v-2.1c0-1.8-1.4-3.2-3.2-3.2c-1.8,0-3.2,1.4-3.2,3.2V22c0,0.6-0.5,1.1-1.1,1.1
		s-1.1-0.5-1.1-1.1v-8.5c0-1.8-1.4-3.2-3.2-3.2S18,11.7,18,13.5v3.2c0,0.6-0.5,1.1-1.1,1.1s-1.1-0.5-1.1-1.1V7.1h29.8v7.4h2.1V6.9
		c1.7-0.6,2.5-2.4,1.9-4.1c-0.5-1.3-1.7-2.1-3-2.1H8.3c-1.8,0-3.2,1.4-3.2,3.2c0,1.4,0.9,2.6,2.1,3v20.6c-1.7,0.6-2.5,2.4-1.9,4.1
		c0.3,0.9,1,1.6,1.9,1.9V54c-1.7,0.6-2.5,2.4-1.9,4.1c0.5,1.3,1.7,2.1,3,2.1h8.5v-2.1H8.3c-0.6,0-1.1-0.5-1.1-1.1s0.5-1,1.1-1h8.5
		v-2.1H9.4V33.6z M8.3,2.8h38.3c0.6,0,1.1,0.5,1.1,1.1S47.2,5,46.6,5H8.3C7.7,5,7.2,4.5,7.2,3.9S7.7,2.8,8.3,2.8z"/>
	<path class="st0" d="M64.6,44.3c0-1.4-1-2.7-2.4-3.1c0.7-1.6-0.1-3.5-1.8-4.1c-0.4-0.1-0.8-0.2-1.2-0.2h-0.7
		c5.3-3.7,6.6-11,2.9-16.3s-11-6.6-16.3-2.9s-6.6,11-2.9,16.3c0.8,1.1,1.7,2.1,2.9,2.9h-0.7c-1.8,0-3.2,1.4-3.2,3.2
		c0,1.4,1,2.7,2.3,3.1c-0.3,0.7-0.3,1.5,0,2.2h-0.2c-1.8,0-3.2,1.4-3.2,3.2s1.4,3.2,3.2,3.2h0.2c-0.4,1.1-0.1,2.3,0.6,3.2
		c-1.2,1.3-1.1,3.3,0.2,4.5c0.6,0.5,1.3,0.8,2.1,0.8h14.9c1.8,0,3.2-1.4,3.2-3.2c0-0.8-0.3-1.5-0.8-2.1c1.2-1.3,1.1-3.3-0.2-4.5
		c-0.6-0.5-1.3-0.8-2.1-0.8h-0.2c0.2-0.7,0.2-1.4,0-2.1h0.2C63.2,47.5,64.6,46,64.6,44.3z M42.3,27.3c0-5.3,4.3-9.6,9.6-9.6
		s9.6,4.3,9.6,9.6s-4.3,9.6-9.6,9.6C46.6,36.8,42.3,32.5,42.3,27.3z M44.4,38.9h14.9c0.6,0,1.1,0.5,1.1,1.1s-0.5,1.1-1.1,1.1H44.4
		c-0.6,0-1.1-0.5-1.1-1.1C43.4,39.4,43.9,38.9,44.4,38.9z M45.5,44.3c0-0.6,0.5-1.1,1.1-1.1h14.9c0.6,0,1.1,0.5,1.1,1.1
		s-0.5,1.1-1.1,1.1H46.6C46,45.3,45.5,44.9,45.5,44.3z M61.4,58.1H46.6c-0.6,0-1.1-0.5-1.1-1.1s0.5-1,1.1-1h14.9
		c0.6,0,1.1,0.5,1.1,1.1S62,58.1,61.4,58.1z M62.5,52.8c0,0.6-0.5,1.1-1.1,1.1H46.6c-0.6,0-1.1-0.5-1.1-1.1s0.5-1.1,1.1-1.1h14.9
		C62,51.7,62.5,52.2,62.5,52.8z M59.3,48.5c0,0.6-0.5,1.1-1.1,1.1H43.4c-0.6,0-1.1-0.5-1.1-1.1s0.5-1.1,1.1-1.1h14.9
		C58.8,47.5,59.3,47.9,59.3,48.5z"/>
	<path class="st0" d="M37.8,49.7c0.3-0.8,0.3-1.6,0-2.4c1.7-0.5,2.7-2.2,2.2-3.9c-0.4-1.4-1.6-2.3-3.1-2.3H22.1
		c-1.8,0-3.2,1.4-3.2,3.2c0,0.4,0.1,0.8,0.2,1.2c-1.7,0.5-2.7,2.2-2.2,3.9c0.3,1.1,1.1,1.9,2.2,2.2c-0.4,1.1-0.2,2.4,0.6,3.3
		c-1.2,1.3-1.1,3.3,0.2,4.5c0.6,0.5,1.3,0.8,2.1,0.8h15c1.8,0,3.2-1.4,3.2-3.2c0-0.8-0.3-1.5-0.8-2.1c1.2-1.3,1.1-3.3-0.2-4.5
		C38.8,50.1,38.3,49.8,37.8,49.7L37.8,49.7z M37,53.8H22.1c-0.6,0-1.1-0.5-1.1-1.1s0.5-1.1,1.1-1.1H37c0.6,0,1.1,0.5,1.1,1.1
		C38.1,53.4,37.6,53.8,37,53.8z M22.1,43.2H37c0.6,0,1.1,0.5,1.1,1.1s-0.5,1.1-1.1,1.1H22.1c-0.6,0-1.1-0.5-1.1-1.1
		S21.5,43.2,22.1,43.2z M20,47.5h14.9c0.6,0,1.1,0.5,1.1,1.1s-0.5,1.1-1.1,1.1H20c-0.6,0-1.1-0.5-1.1-1.1
		C18.9,47.9,19.4,47.5,20,47.5z M37,58.1H22.1c-0.6,0-1.1-0.5-1.1-1.1s0.5-1.1,1.1-1.1H37c0.6,0,1.1,0.5,1.1,1.1S37.6,58.1,37,58.1z
		"/>
	<path class="st0" d="M52.9,22.1v-1.2h-2.1v1.2c-1.6,0.5-2.5,2.2-2,3.8c0.2,0.8,0.8,1.4,1.5,1.8l2.1,1c0.4,0.2,0.6,0.8,0.4,1.2
		c-0.2,0.3-0.5,0.5-0.8,0.5h-0.3c-0.5,0-0.9-0.4-0.9-0.9v-0.2h-2.1v0.2c0,1.3,0.9,2.5,2.1,2.9v1.2h2.1v-1.2c1.6-0.5,2.5-2.2,2-3.8
		c-0.2-0.8-0.8-1.4-1.5-1.8l-2.1-1c-0.4-0.2-0.6-0.8-0.4-1.2c0.2-0.3,0.5-0.5,0.8-0.5H52c0.5,0,0.9,0.4,0.9,0.9v0.2H55V25
		C55.1,23.6,54.2,22.5,52.9,22.1L52.9,22.1z"/>
	<path class="st0" d="M44.4,26.2h2.1v2.1h-2.1V26.2z"/>
	<path class="st0" d="M57.2,26.2h2.1v2.1h-2.1V26.2z"/>
</g>
</svg>
