<?xml version="1.0" encoding="utf-8"?>
<!-- Generator: Adobe Illustrator 23.0.3, SVG Export Plug-In . SVG Version: 6.00 Build 0)  -->
<svg version="1.1" id="earth-globe" xmlns="http://www.w3.org/2000/svg" xmlns:xlink="http://www.w3.org/1999/xlink" x="0px"
	 y="0px" viewBox="0 0 60.2 60.2" style="enable-background:new 0 0 60.2 60.2;" xml:space="preserve">
<style type="text/css">
	.st0{fill:#FF4A52;}
</style>
<g id="Outline">
	<path class="st0" d="M52.5,58.2c-1.6,0-2.4-0.4-3.2-0.9c-1-0.5-2.1-1.2-4.2-1.2c-2.1,0-3.2,0.6-4.2,1.2c-0.9,0.5-1.6,0.9-3.2,0.9
		s-2.4-0.4-3.2-0.9c-1-0.5-2.1-1.2-4.2-1.2s-3.2,0.6-4.2,1.2c-0.9,0.5-1.6,0.9-3.2,0.9s-2.4-0.4-3.2-0.9c-1-0.5-2.1-1.2-4.2-1.2
		S12,56.7,11,57.3c-0.9,0.5-1.6,0.9-3.2,0.9s-2.4-0.4-3.2-0.9c-1-0.5-2.1-1.2-4.2-1.2v2.1c1.6,0,2.4,0.4,3.2,0.9
		c1,0.5,2.1,1.2,4.2,1.2s3.2-0.6,4.2-1.2c0.9-0.5,1.6-0.9,3.2-0.9c1.6,0,2.4,0.4,3.2,0.9c1,0.5,2.1,1.2,4.2,1.2s3.2-0.6,4.2-1.2
		c0.9-0.5,1.6-0.9,3.2-0.9c1.6,0,2.4,0.4,3.2,0.9c1,0.5,2.1,1.2,4.2,1.2s3.2-0.6,4.2-1.2c0.9-0.5,1.6-0.9,3.2-0.9
		c1.6,0,2.4,0.4,3.2,0.9c1,0.5,2.1,1.2,4.2,1.2c2.1,0,3.2-0.6,4.2-1.2c0.9-0.5,1.6-0.9,3.2-0.9v-2.1c-2.1,0-3.2,0.6-4.2,1.2
		C54.8,57.7,54.1,58.2,52.5,58.2z"/>
	<path class="st0" d="M5.4,48.9v6.2c0,0.3,0.1,0.5,0.3,0.7c0.4,0.4,0.9,0.8,1.4,1.1l1.2-1.7C8,55,7.7,54.8,7.5,54.6v-4.8L29.1,48V54
		h2.1V48l21.6,1.9v4.8c-0.2,0.2-0.5,0.4-0.8,0.7l1.2,1.7c0.5-0.3,0.9-0.7,1.4-1.1c0.2-0.2,0.3-0.5,0.3-0.7v-6.2c0-0.5-0.4-1-0.9-1
		l-23.6-2.1c-0.1,0-0.1,0-0.2,0L6.4,47.9C5.8,47.9,5.4,48.4,5.4,48.9z"/>
	<path class="st0" d="M33.2,49.9h2.1V52h-2.1V49.9z"/>
	<path class="st0" d="M25,49.9H27V52H25V49.9z"/>
	<path class="st0" d="M52.7,45.8v-5.1c0-0.6-0.5-1-1-1H30.1c-0.6,0-1,0.5-1,1v3.1h2.1v-2.1h19.5v4.1H52.7z"/>
	<path class="st0" d="M7.5,34.5v11.3h2.1V35.5h38v2.1h2.1v-3.1c0-0.6-0.5-1-1-1H8.5C7.9,33.5,7.5,33.9,7.5,34.5z"/>
	<path class="st0" d="M11.6,37.6h3.1v2.1h-3.1V37.6z"/>
	<path class="st0" d="M17.8,37.6h3.1v2.1h-3.1V37.6z"/>
	<path class="st0" d="M23.9,37.6H27v2.1h-3.1V37.6z"/>
	<path class="st0" d="M29.1,22.2h3.1v2.1h-3.1V22.2z"/>
	<path class="st0" d="M35.2,22.2h3.1v2.1h-3.1V22.2z"/>
	<path class="st0" d="M40.9,16.8l9.8-8.6l1.7,1.7l-8.4,9.6l1.5,1.4l5.2-5.9v6.3h-2.1v2.1h2.1v2.1c0,0.6,0.5,1,1,1c0.6,0,1,0.5,1,1
		s-0.5,1-1,1c-0.6,0-1-0.5-1-1h-2.1c0,1.7,1.4,3.1,3.1,3.1c1.7,0,3.1-1.4,3.1-3.1c0-1.3-0.8-2.5-2.1-2.9v-1.2h2.1v-2.1h-2.1v-8.6
		l1.8-2c0.4-0.4,0.3-1,0-1.4L51.4,6c-0.4-0.4-1-0.4-1.4,0l-10.5,9.3L40.9,16.8z"/>
	<path class="st0" d="M42.4,31.4V19.1c0-0.6-0.5-1-1-1H18.8c-0.6,0-1,0.5-1,1v12.3h2.1v-3.1h20.6v3.1H42.4z M19.8,26.3v-6.2h20.6
		v6.2H19.8z"/>
	<path class="st0" d="M9.5,27.3v2.1h2.1v2.1h2.1v-2.1h2.1v-2.1h-2.1v-6.2h2.1v-2.1h-2.1v-4.9l3.4,3l1.4-1.5l-3.1-2.8h5.5V16h2.1
		v-3.1H25v-2.1h-2.1V4.7H25V2.6h-2.1V0.6h-2.1v2.1h-7.2V0.6h-2.1v2.1H9.5v2.1h2.1v6.2H9.5v2.1h2.1v6.2H9.5v2.1h2.1v6.2H9.5z
		 M20.9,9.6l-5.5-4.9h5.5V9.6z M13.7,6l5.5,4.9h-5.5V6z"/>
	<path class="st0" d="M29.1,2.6v3.1h-1c-0.6,0-1,0.5-1,1V16h2.1V7.8h6.2V16h2.1V6.8c0-0.6-0.5-1-1-1h-1V0.6h-2.1v5.1h-2.1V2.6H29.1z
		"/>
	<path class="st0" d="M31.1,9.8h2.1v2.1h-2.1V9.8z"/>
	<path class="st0" d="M31.1,14h2.1V16h-2.1V14z"/>
</g>
</svg>
